<svg width="55" height="18" viewBox="0 0 55 18" fill="none" xmlns="http://www.w3.org/2000/svg">
<g clip-path="url(#clip0_3_398)">
<path d="M16.9061 3.16748C14.6136 3.16748 12.9803 4.73486 12.9803 6.88086V6.89551C12.9803 8.90234 14.4012 10.3818 16.43 10.3818C17.8802 10.3818 18.803 9.64209 19.1912 8.80713H19.3377C19.3377 8.8877 19.3304 8.96826 19.3304 9.04883C19.2498 11.0703 18.5394 12.7109 16.8621 12.7109C15.9319 12.7109 15.2801 12.2275 15.0018 11.4878L14.9798 11.4146H13.1194L13.1341 11.4951C13.471 13.1138 14.9212 14.2637 16.8621 14.2637C19.5208 14.2637 21.1248 12.1543 21.1248 8.59473V8.58008C21.1248 4.77148 19.1619 3.16748 16.9061 3.16748ZM16.8987 8.93164C15.6976 8.93164 14.826 8.05273 14.826 6.82959V6.81494C14.826 5.63574 15.7562 4.70557 16.9207 4.70557C18.0926 4.70557 19.0081 5.65039 19.0081 6.85889V6.87354C19.0081 8.06738 18.0926 8.93164 16.8987 8.93164ZM24.285 7.15186C24.9588 7.15186 25.4496 6.63916 25.4496 5.99463C25.4496 5.34277 24.9588 4.8374 24.285 4.8374C23.6185 4.8374 23.1205 5.34277 23.1205 5.99463C23.1205 6.63916 23.6185 7.15186 24.285 7.15186ZM24.285 12.5864C24.9588 12.5864 25.4496 12.0811 25.4496 11.4292C25.4496 10.7773 24.9588 10.272 24.285 10.272C23.6185 10.272 23.1205 10.7773 23.1205 11.4292C23.1205 12.0811 23.6185 12.5864 24.285 12.5864ZM32.5722 14H34.3812V11.9712H35.8021V10.4111H34.3812V3.43115H31.7079C30.2724 5.61377 28.7709 8.04541 27.4013 10.4258V11.9712H32.5722V14ZM29.1591 10.4551V10.3452C30.1845 8.55078 31.4076 6.59521 32.4916 4.93994H32.6015V10.4551H29.1591ZM40.017 14H41.9067V3.43115H40.0243L37.2631 5.37207V7.15186L39.8925 5.2915H40.017V14Z" fill="black"/>
</g>
<defs>
<clipPath id="clip0_3_398">
<rect width="53.7135" height="18" fill="white" transform="translate(0.893921)"/>
</clipPath>
</defs>
</svg>
