<svg xmlns="http://www.w3.org/2000/svg" width="20.603" height="20.603" viewBox="0 0 20.603 20.603">
  <path id="instagram" d="M15.8,3.564h0a1.232,1.232,0,1,0,.481.1A1.232,1.232,0,0,0,15.8,3.564Zm4.739,2.493q-.008-.321-.041-.639t-.093-.632q-.059-.314-.144-.623t-.2-.61a5.089,5.089,0,0,0-1.195-1.823A4.842,4.842,0,0,0,17.049.546q-.3-.114-.609-.2T15.818.2Q15.5.136,15.185.1t-.64-.041c-.273-.015-.5-.027-.73-.036s-.464-.014-.751-.018S12.437,0,11.993,0H8.61c-.444,0-.785,0-1.072.007s-.521.01-.751.018-.457.02-.73.036Q5.736.068,5.418.1T4.785.2q-.314.061-.622.148t-.609.2A4.924,4.924,0,0,0,1.731,1.731,4.842,4.842,0,0,0,.546,3.554q-.114.3-.2.609T.2,4.785Q.136,5.1.1,5.418t-.041.64c-.015.273-.027.5-.036.73s-.014.464-.018.751S0,8.166,0,8.61,0,9.6,0,10.3s0,1.248,0,1.692,0,.785.007,1.072.01.521.018.751.02.457.036.73q.007.321.041.64t.095.633q.061.314.148.622t.2.609a4.842,4.842,0,0,0,1.185,1.823,4.924,4.924,0,0,0,1.823,1.185q.3.114.609.2t.622.148q.314.061.633.095t.64.041c.273.015.5.027.73.036s.464.014.751.018.628.006,1.072.007h3.383c.444,0,.785,0,1.072-.007s.521-.01.751-.018.457-.02.73-.036q.321-.007.64-.041t.633-.095q.314-.061.622-.148t.609-.2a4.842,4.842,0,0,0,1.823-1.185,5,5,0,0,0,1.195-1.823q.11-.3.2-.61t.144-.623q.059-.314.093-.632t.041-.639c0-.273,0-.5.01-.73s.014-.464.021-.751.015-.628.021-1.072S20.6,11,20.6,10.3s0-1.248,0-1.692,0-.785-.007-1.072-.01-.521-.018-.751S20.557,6.33,20.541,6.057Zm-1.854,8.365q0,.245-.026.489t-.067.484q-.044.24-.108.477t-.148.467a3.152,3.152,0,0,1-.773,1.185,3.286,3.286,0,0,1-1.185.773q-.23.084-.467.148t-.477.108q-.24.044-.484.067t-.489.026c-.258.013-.475.023-.7.031s-.452.014-.733.019-.615.007-1.048.009-.965,0-1.642,0H8.7c-.433,0-.767,0-1.048-.007s-.51-.01-.733-.018-.44-.02-.7-.036q-.255,0-.508-.012t-.5-.056q-.251-.039-.5-.1t-.488-.142a3.369,3.369,0,0,1-1.133-.773,3.09,3.09,0,0,1-.762-1.185q-.094-.234-.168-.474t-.125-.486q-.052-.246-.082-.5t-.038-.5c0-.258,0-.475-.01-.7s-.014-.452-.021-.733-.015-.615-.021-1.048-.01-.965-.01-1.642,0-1.209,0-1.642,0-.767.007-1.048.01-.51.018-.733.02-.44.036-.7q0-.251.025-.5t.069-.495q.045-.246.112-.487t.154-.476A3.09,3.09,0,0,1,3.09,3.09a3.235,3.235,0,0,1,1.133-.824q.235-.085.477-.15t.487-.109q.246-.044.494-.067t.5-.025c.258,0,.475,0,.7-.01l.733-.021c.281-.008.615-.015,1.048-.021s.965-.01,1.642-.01h1.642c.433,0,.767,0,1.048.007s.51.01.733.018.44.02.7.036q.245,0,.489.026t.484.067q.24.044.477.108t.467.148a3.152,3.152,0,0,1,1.226.824,3.152,3.152,0,0,1,.773,1.133q.086.235.151.477t.109.487q.044.246.067.494t.024.5c.013.258.023.475.031.7s.014.452.019.733.007.615.009,1.048,0,.965,0,1.642,0,1.209,0,1.642,0,.767-.009,1.048-.011.51-.019.733S18.7,14.164,18.687,14.422ZM10.3,5.017a5.273,5.273,0,1,0,1.038.1,5.268,5.268,0,0,0-1.038-.1Zm0,8.715a3.42,3.42,0,1,1,1.335-.27,3.42,3.42,0,0,1-1.335.27Z" fill="#fff"/>
</svg>
