<svg xmlns="http://www.w3.org/2000/svg" width="672.322" height="114.22" viewBox="0 0 672.322 114.22">
  <g id="waves" transform="translate(17.517)" fill="#358d8f">
    <path d="M 651.7908935546875 113.7203674316406 L -14.57767295837402 113.7203674316406 C -14.84151363372803 113.4799728393555 -15.47401905059814 112.854621887207 -16.02513885498047 111.9291839599609 C -16.96413993835449 110.3525543212891 -17.23913955688477 108.6853713989258 -16.84250259399414 106.9740982055664 C -16.48268508911133 105.422004699707 -15.56077575683594 103.8431854248047 -14.10232067108154 102.2814636230469 C -12.34395694732666 100.398551940918 -9.78604793548584 98.52091217041016 -6.499593734741211 96.70055389404297 C 1.54767906665802 92.24318695068359 14.03922462463379 88.06291198730469 30.62795257568359 84.27564239501953 C 41.81604385375977 81.72136688232422 52.8784065246582 80.53173065185547 65.44195556640625 80.53173065185547 C 75.48177337646484 80.53173065185547 85.15304565429688 81.27655029296875 95.39213562011719 82.06509399414062 C 106.1171340942383 82.89100646972656 117.2072219848633 83.74509429931641 129.2584075927734 83.74518585205078 C 154.234375 83.74518585205078 189.9003295898438 80.54087066650391 244.50830078125 55.53788757324219 C 261.9531555175781 50.57565307617188 276.7995300292969 44.5858039855957 288.6331481933594 37.73500442504883 C 298.1280517578125 32.23818588256836 305.7207641601562 26.17509651184082 311.2005004882812 19.71409606933594 C 313.3596801757812 17.16836929321289 315.1925048828125 14.55327796936035 316.6482238769531 11.94155120849609 C 317.8157653808594 9.84664249420166 318.7450561523438 7.748551368713379 319.4101257324219 5.705460071563721 C 320.1832275390625 3.330789089202881 320.4189147949219 1.591500759124756 320.4899597167969 0.6886886954307556 L 651.7908935546875 113.7203674316406 Z" stroke="none"/>
    <path d="M 320.9227600097656 1.364707946777344 C 320.7987976074219 2.379859924316406 320.5182800292969 3.9168701171875 319.8855895996094 5.860191345214844 C 319.2105102539062 7.934005737304688 318.2682189941406 10.06191253662109 317.0849609375 12.18500518798828 C 315.6134948730469 14.82500457763672 313.761962890625 17.46700286865234 311.5818481445312 20.03755187988281 C 306.0650329589844 26.54228210449219 298.42822265625 32.64218902587891 288.8836669921875 38.16773223876953 C 277.0222778320312 45.03462219238281 262.1504516601562 51.03697204589844 244.68115234375 56.00861358642578 C 190.0089721679688 81.03462219238281 154.279541015625 84.24518585205078 129.2583923339844 84.24518585205078 C 117.18896484375 84.24518585205078 106.0899658203125 83.39027404785156 95.3563232421875 82.56355285644531 C 85.126220703125 81.77564239501953 75.46337890625 81.0313720703125 65.44195556640625 81.03173828125 C 52.9150390625 81.03218841552734 41.8880615234375 82.21781921386719 30.73919677734375 84.76309204101562 C 14.20831298828125 88.53718566894531 1.7666015625 92.69746398925781 -6.2401123046875 97.12837219238281 C -9.48175048828125 98.92237091064453 -12.000244140625 100.766731262207 -13.72552490234375 102.6103668212891 C -15.1259765625 104.1070098876953 -16.009765625 105.6089172363281 -16.35247802734375 107.074462890625 C -16.72052001953125 108.6476440429688 -16.472412109375 110.1838226318359 -15.615234375 111.6402816772461 C -15.172119140625 112.393180847168 -14.66900634765625 112.9379730224609 -14.37933349609375 113.2203674316406 L 648.7767333984375 113.2203674316406 L 320.9227600097656 1.364707946777344 M 320.019775390625 7.62939453125e-06 L 654.8047485351562 114.2203674316406 L -14.76495361328125 114.2203674316406 C -14.76495361328125 114.2203674316406 -34.25811767578125 98.57637023925781 30.51666259765625 83.78818511962891 C 42.9268798828125 80.95492553710938 54.3341064453125 80.03213500976562 65.44189453125 80.03173828125 C 86.17840576171875 80.03102111816406 105.8912963867188 83.24517822265625 129.2584533691406 83.24517822265625 C 158.7066650390625 83.24517822265625 193.9488220214844 78.14173889160156 244.3344116210938 55.06755065917969 C 320.7134094238281 33.35272979736328 320.019775390625 7.62939453125e-06 320.019775390625 7.62939453125e-06 Z" stroke="none" fill="#a0c5cf"/>
  </g>
</svg>
