<svg width="327" height="59" viewBox="0 0 327 59" fill="none" xmlns="http://www.w3.org/2000/svg">
<circle cx="163.5" cy="21.5" r="2.5" fill="#4EB0B2" fill-opacity="0.2"/>
<circle cx="183.5" cy="15.5" r="2.5" fill="#4EB0B2" fill-opacity="0.3"/>
<circle cx="202.5" cy="22.5" r="2.5" fill="#4EB0B2" fill-opacity="0.2"/>
<circle cx="222.5" cy="15.5" r="2.5" fill="#4EB0B2" fill-opacity="0.25"/>
<circle cx="246.5" cy="26.5" r="2.5" fill="#4EB0B2" fill-opacity="0.3"/>
<circle cx="237.5" cy="22.5" r="1.5" fill="#4EB0B2" fill-opacity="0.3"/>
<circle cx="218.5" cy="29.5" r="1.5" fill="#4EB0B2" fill-opacity="0.3"/>
<circle cx="192.5" cy="28.5" r="1.5" fill="#4EB0B2" fill-opacity="0.3"/>
<circle cx="184.5" cy="24.5" r="1.5" fill="#4EB0B2" fill-opacity="0.1"/>
<circle cx="176.5" cy="32.5" r="1.5" fill="#4EB0B2" fill-opacity="0.3"/>
<circle cx="96.5" cy="22.5" r="1.5" fill="#4EB0B2" fill-opacity="0.3"/>
<circle cx="76.5" cy="16.5" r="1.5" fill="#4EB0B2" fill-opacity="0.3"/>
<circle cx="106.5" cy="12.5" r="1.5" fill="white" fill-opacity="0.3"/>
<circle cx="196.5" cy="12.5" r="1.5" fill="white" fill-opacity="0.3"/>
<circle cx="226.5" cy="22.5" r="1.5" fill="white" fill-opacity="0.3"/>
<circle cx="266.5" cy="22.5" r="1.5" fill="white" fill-opacity="0.3"/>
<circle cx="256.5" cy="30.5" r="1.5" fill="white" fill-opacity="0.3"/>
<circle cx="276.5" cy="8.5" r="1.5" fill="white" fill-opacity="0.3"/>
<circle cx="154.5" cy="28.5" r="1.5" fill="white" fill-opacity="0.3"/>
<circle cx="207.5" cy="14.5" r="1.5" fill="#4EB0B2" fill-opacity="0.3"/>
<circle cx="237.5" cy="14.5" r="1.5" fill="#4EB0B2" fill-opacity="0.3"/>
<circle cx="268.5" cy="24.5" r="1.5" fill="#4EB0B2" fill-opacity="0.3"/>
<circle cx="259.5" cy="33.5" r="1.5" fill="#4EB0B2" fill-opacity="0.3"/>
<circle cx="260.5" cy="22.5" r="1.5" fill="#4EB0B2" fill-opacity="0.1"/>
<circle cx="251.5" cy="11.5" r="1.5" fill="#4EB0B2" fill-opacity="0.3"/>
<circle cx="232.5" cy="30.5" r="1.5" fill="#4EB0B2" fill-opacity="0.3"/>
<circle cx="272.5" cy="29.5" r="1.5" fill="#4EB0B2" fill-opacity="0.3"/>
<circle cx="292.5" cy="31.5" r="1.5" fill="#4EB0B2" fill-opacity="0.3"/>
<circle cx="300.5" cy="33.5" r="1.5" fill="#4EB0B2" fill-opacity="0.3"/>
<circle cx="279.5" cy="31.5" r="1.5" fill="#4EB0B2" fill-opacity="0.1"/>
<circle cx="297.5" cy="9.5" r="1.5" fill="#4EB0B2" fill-opacity="0.3"/>
<circle cx="285.5" cy="9.5" r="1.5" fill="#4EB0B2" fill-opacity="0.3"/>
<circle cx="293.5" cy="13.5" r="1.5" fill="#4EB0B2" fill-opacity="0.1"/>
<circle cx="311.5" cy="13.5" r="1.5" fill="#4EB0B2" fill-opacity="0.3"/>
<circle cx="318.5" cy="19.5" r="1.5" fill="#4EB0B2" fill-opacity="0.3"/>
<circle cx="314.5" cy="30.5" r="1.5" fill="#4EB0B2" fill-opacity="0.1"/>
<circle cx="152.5" cy="12.5" r="1.5" fill="#4EB0B2" fill-opacity="0.3"/>
<circle cx="216.5" cy="14.5" r="1.5" fill="#4EB0B2" fill-opacity="0.1"/>
<circle cx="266.5" cy="14.5" r="2.5" fill="#4EB0B2" fill-opacity="0.3"/>
<circle cx="275.5" cy="27.5" r="2.5" fill="#4EB0B2" fill-opacity="0.2"/>
<circle cx="301.5" cy="11.5" r="2.5" fill="#4EB0B2" fill-opacity="0.3"/>
<circle cx="318.5" cy="24.5" r="2.5" fill="#4EB0B2" fill-opacity="0.3"/>
<circle cx="297.5" cy="28.5" r="2.5" fill="#4EB0B2" fill-opacity="0.1"/>
<circle cx="277.5" cy="14.5" r="2.5" fill="#4EB0B2" fill-opacity="0.3"/>
<circle cx="254.5" cy="18.5" r="2.5" fill="#4EB0B2" fill-opacity="0.1"/>
<circle cx="312.5" cy="18.5" r="2.5" fill="#4EB0B2" fill-opacity="0.3"/>
<circle cx="293.5" cy="22.5" r="2.5" fill="#4EB0B2" fill-opacity="0.2"/>
<circle cx="305.5" cy="31.5" r="2.5" fill="#4EB0B2" fill-opacity="0.3"/>
</svg>
