<svg width="91" height="13" viewBox="0 0 91 13" fill="none" xmlns="http://www.w3.org/2000/svg">
<path fill-rule="evenodd" clip-rule="evenodd" d="M3.078 5.202V2.646H7.74V0.18H0V12.816H7.74V10.35H3.078V7.578H7.2V5.202H3.078ZM13.7863 3.15C13.2463 4.122 12.9763 5.232 12.9763 6.48C12.9763 7.728 13.2463 8.838 13.7863 9.81C14.3263 10.782 15.0763 11.544 16.0363 12.096C17.0083 12.636 18.1063 12.906 19.3303 12.906C20.8303 12.906 22.1143 12.516 23.1823 11.736C24.2503 10.944 24.9643 9.864 25.3243 8.496H21.9403C21.6883 9.024 21.3283 9.426 20.8603 9.702C20.4043 9.978 19.8823 10.116 19.2943 10.116C18.3463 10.116 17.5783 9.786 16.9903 9.126C16.4023 8.466 16.1083 7.584 16.1083 6.48C16.1083 5.376 16.4023 4.494 16.9903 3.834C17.5783 3.174 18.3463 2.844 19.2943 2.844C19.8823 2.844 20.4043 2.982 20.8603 3.258C21.3283 3.534 21.6883 3.936 21.9403 4.464H25.3243C24.9643 3.096 24.2503 2.016 23.1823 1.224C22.1143 0.431999 20.8303 0.0359995 19.3303 0.0359995C18.1063 0.0359995 17.0083 0.312 16.0363 0.864C15.0763 1.404 14.3263 2.166 13.7863 3.15ZM33.6692 12.114C34.6652 12.666 35.7572 12.942 36.9452 12.942C38.1332 12.942 39.2192 12.666 40.2032 12.114C41.1872 11.562 41.9672 10.794 42.5432 9.81C43.1192 8.814 43.4072 7.698 43.4072 6.462C43.4072 5.226 43.1192 4.116 42.5432 3.132C41.9792 2.148 41.1992 1.38 40.2032 0.828C39.2192 0.276 38.1332 0 36.9452 0C35.7572 0 34.6652 0.276 33.6692 0.828C32.6852 1.38 31.8992 2.148 31.3112 3.132C30.7352 4.116 30.4472 5.226 30.4472 6.462C30.4472 7.698 30.7352 8.814 31.3112 9.81C31.8992 10.794 32.6852 11.562 33.6692 12.114ZM57.9696 2.646V0.18H48.1956V2.646H51.5436V12.816H54.6216V2.646H57.9696ZM65.6684 12.816L66.4244 10.584H71.1404L71.8964 12.816H75.1544L70.5824 0.18H67.0184L62.4464 12.816H65.6684ZM68.7824 3.582L70.3484 8.208H67.2344L68.7824 3.582ZM89.7199 7.434C89.2759 6.858 88.6879 6.492 87.9559 6.336C88.6039 6.144 89.1199 5.802 89.5039 5.31C89.8999 4.818 90.0979 4.2 90.0979 3.456C90.0979 2.448 89.7319 1.65 88.9999 1.062C88.2799 0.474 87.2779 0.18 85.9939 0.18H80.3059V12.816H86.1919C87.5119 12.816 88.5379 12.51 89.2699 11.898C90.0139 11.274 90.3859 10.434 90.3859 9.378C90.3859 8.646 90.1639 7.998 89.7199 7.434ZM85.3999 5.292H83.3839V2.646H85.3999C85.9039 2.646 86.2879 2.76 86.5519 2.988C86.8279 3.216 86.9659 3.546 86.9659 3.978C86.9659 4.41 86.8279 4.74 86.5519 4.968C86.2879 5.184 85.9039 5.292 85.3999 5.292ZM86.8399 9.99C86.5639 10.218 86.1679 10.332 85.6519 10.332H83.3839V7.542H85.6159C86.1319 7.542 86.5339 7.668 86.8219 7.92C87.1219 8.172 87.2719 8.52 87.2719 8.964C87.2719 9.408 87.1279 9.75 86.8399 9.99Z" fill="#4EB0B2"/>
</svg>
