<svg width="21" height="21" viewBox="0 0 21 21" fill="none" xmlns="http://www.w3.org/2000/svg">
<circle cx="10.5" cy="10.5" r="9.5" stroke="white" stroke-width="2"/>
<path d="M9.25586 12.3076H11.0742V12.0273C11.0742 11.3779 11.3271 11.0361 12.2363 10.5098C13.2002 9.94238 13.6992 9.22461 13.6992 8.19922V8.19238C13.6992 6.62695 12.4004 5.54688 10.4521 5.54688C8.35352 5.54688 7.18457 6.72949 7.12988 8.33594V8.4043H8.98242L8.98926 8.34961C9.03027 7.64551 9.54297 7.13281 10.3291 7.13281C11.1016 7.13281 11.6279 7.59766 11.6279 8.25391V8.26074C11.6279 8.89648 11.3613 9.23828 10.4795 9.76465C9.53613 10.3184 9.18066 10.9404 9.24902 11.9111L9.25586 12.3076ZM10.1924 15.582C10.8145 15.582 11.3135 15.1104 11.3135 14.5088C11.3135 13.9072 10.8145 13.4355 10.1924 13.4355C9.57715 13.4355 9.07812 13.9072 9.07812 14.5088C9.07812 15.1104 9.57715 15.582 10.1924 15.582Z" fill="white"/>
</svg>
